# xmcd
#
# Track frame offsets: 
#        150
#        12775
#        26172
#        38325
#        51050
#        65055
#        77407
#        90792
#        105405
#        119192
#        132522
#        147312
#        162602
#
# Disc length: 2343 seconds
#
# Revision: 1
# Processed by: cddbd v1.5.2PL0 Copyright (c) Steve Scherf et al.
# Submitted via: ExactAudioCopy v1.0b1
#
DISCID=a709250d
DTITLE=Stan Getz - The Complete Recordings of the Stan Getz Quintet wi
DTITLE=th Jimmy Raney Disc 2
DYEAR=1900
DGENRE=Jazz
TTITLE0=Melody Express
TTITLE1=Yvette
TTITLE2=Potter's Luck
TTITLE3=The Song Is You
TTITLE4=Wildwood
TTITLE5=Stella By Starlight
TTITLE6=Time On My Hands
TTITLE7='Tis Autumn
TTITLE8=The Way You Look Tonight
TTITLE9=Lover Come Back To Me
TTITLE10=Body And Soul
TTITLE11=Stars Fell On Alabama
TTITLE12=You Turned The Tables On Me
EXTD=
EXTT0=
EXTT1=
EXTT2=
EXTT3=
EXTT4=
EXTT5=
EXTT6=
EXTT7=
EXTT8=
EXTT9=
EXTT10=
EXTT11=
EXTT12=
PLAYORDER=
